<?xml version="1.0" encoding="UTF-8"?>
<svg width="69px" height="69px" viewBox="0 0 69 69" version="1.1" xmlns="http://www.w3.org/2000/svg" xmlns:xlink="http://www.w3.org/1999/xlink">
    <!-- Generator: Sketch 47.1 (45422) - http://www.bohemiancoding.com/sketch -->
    <title>Combined Shape</title>
    <desc>Created with Sketch.</desc>
    <defs>
        <filter x="-18.2%" y="-65.6%" width="136.4%" height="263.9%" filterUnits="objectBoundingBox" id="filter-1">
            <feOffset dx="0" dy="10" in="SourceAlpha" result="shadowOffsetOuter1"></feOffset>
            <feGaussianBlur stdDeviation="15" in="shadowOffsetOuter1" result="shadowBlurOuter1"></feGaussianBlur>
            <feColorMatrix values="0 0 0 0 0   0 0 0 0 0   0 0 0 0 0  0 0 0 0.15 0" type="matrix" in="shadowBlurOuter1" result="shadowMatrixOuter1"></feColorMatrix>
            <feMerge>
                <feMergeNode in="shadowMatrixOuter1"></feMergeNode>
                <feMergeNode in="SourceGraphic"></feMergeNode>
            </feMerge>
        </filter>
    </defs>
    <g id="Page-1" stroke="none" stroke-width="1" fill="none" fill-rule="evenodd">
        <g id="Клиент-1" transform="translate(-266.000000, -1028.000000)" fill="#FFFFFF">
            <g id="Group-2" filter="url(#filter-1)" transform="translate(260.000000, 1022.000000)">
                <path d="M42,29 L42,22.5 C42,21.6715729 41.3284271,21 40.5,21 C39.6715729,21 39,21.6715729 39,22.5 L39,22.5 L39,29 L32.5,29 L32.5,29 C31.6715729,29 31,29.6715729 31,30.5 C31,31.3284271 31.6715729,32 32.5,32 L39,32 L39,38.5 C39,39.3284271 39.6715729,40 40.5,40 C41.3284271,40 42,39.3284271 42,38.5 L42,32 L48.5,32 C49.3284271,32 50,31.3284271 50,30.5 C50,29.6715729 49.3284271,29 48.5,29 L42,29 Z" id="Combined-Shape"></path>
            </g>
        </g>
    </g>
</svg>